<?xml version="1.0" encoding="UTF-8"?>
<svg xmlns="http://www.w3.org/2000/svg" xmlns:xlink="http://www.w3.org/1999/xlink" width="96px" height="32px" viewBox="0 0 96 32" version="1.1">
<defs>
<filter id="alpha" filterUnits="objectBoundingBox" x="0%" y="0%" width="100%" height="100%">
  <feColorMatrix type="matrix" in="SourceGraphic" values="0 0 0 0 1 0 0 0 0 1 0 0 0 0 1 0 0 0 1 0"/>
</filter>
<mask id="mask0">
  <g filter="url(#alpha)">
<rect x="0" y="0" width="96" height="32" style="fill:rgb(0%,0%,0%);fill-opacity:0.14902;stroke:none;"/>
  </g>
</mask>
<clipPath id="clip1">
  <rect x="0" y="0" width="96" height="32"/>
</clipPath>
<g id="surface5" clip-path="url(#clip1)">
<path style=" stroke:none;fill-rule:nonzero;fill:rgb(0%,0%,0%);fill-opacity:1;" d="M 11.980469 17.839844 L 3.378906 22.765625 L 10.140625 16 Z M 11.980469 17.839844 "/>
</g>
<mask id="mask1">
  <g filter="url(#alpha)">
<rect x="0" y="0" width="96" height="32" style="fill:rgb(0%,0%,0%);fill-opacity:0.14902;stroke:none;"/>
  </g>
</mask>
<clipPath id="clip2">
  <rect x="0" y="0" width="96" height="32"/>
</clipPath>
<g id="surface8" clip-path="url(#clip2)">
<path style=" stroke:none;fill-rule:nonzero;fill:rgb(0%,0%,0%);fill-opacity:1;" d="M 14.582031 11.554688 L 9.660156 2.953125 L 16.421875 9.71875 Z M 14.582031 11.554688 "/>
</g>
<mask id="mask2">
  <g filter="url(#alpha)">
<rect x="0" y="0" width="96" height="32" style="fill:rgb(0%,0%,0%);fill-opacity:0.14902;stroke:none;"/>
  </g>
</mask>
<clipPath id="clip3">
  <rect x="0" y="0" width="96" height="32"/>
</clipPath>
<g id="surface11" clip-path="url(#clip3)">
<path style=" stroke:none;fill-rule:nonzero;fill:rgb(0%,0%,0%);fill-opacity:1;" d="M 20.867188 14.160156 L 29.46875 9.234375 L 22.703125 16 Z M 20.867188 14.160156 "/>
</g>
<mask id="mask3">
  <g filter="url(#alpha)">
<rect x="0" y="0" width="96" height="32" style="fill:rgb(0%,0%,0%);fill-opacity:0.14902;stroke:none;"/>
  </g>
</mask>
<clipPath id="clip4">
  <rect x="0" y="0" width="96" height="32"/>
</clipPath>
<g id="surface14" clip-path="url(#clip4)">
<path style=" stroke:none;fill-rule:nonzero;fill:rgb(0%,0%,0%);fill-opacity:1;" d="M 18.261719 20.445312 L 23.1875 29.046875 L 16.421875 22.28125 Z M 18.261719 20.445312 "/>
</g>
</defs>
<g id="surface1">
<path style=" stroke:none;fill-rule:nonzero;fill:rgb(100%,58.431373%,0%);fill-opacity:1;" d="M 23.21875 2.921875 C 18.960938 0.710938 13.890625 0.710938 9.628906 2.921875 L 16.421875 9.71875 L 22.703125 15.996094 L 29.5 9.199219 C 28.097656 6.515625 25.90625 4.324219 23.21875 2.921875 Z M 23.21875 2.921875 "/>
<path style=" stroke:none;fill-rule:nonzero;fill:rgb(29.803922%,85.098039%,39.215686%);fill-opacity:1;" d="M 16.421875 22.28125 L 10.140625 16.003906 L 3.34375 22.796875 C 7.097656 30.019531 15.996094 32.832031 23.21875 29.078125 Z M 16.421875 22.28125 "/>
<path style=" stroke:none;fill-rule:nonzero;fill:rgb(0%,47.843137%,100%);fill-opacity:1;" d="M 29.5 9.207031 L 22.703125 16.003906 L 16.421875 22.28125 L 23.21875 29.078125 C 30.441406 25.324219 33.253906 16.429688 29.5 9.207031 Z M 29.5 9.207031 "/>
<path style=" stroke:none;fill-rule:nonzero;fill:rgb(100%,23.137255%,18.823529%);fill-opacity:1;" d="M 9.625 2.921875 C 2.40625 6.675781 -0.402344 15.570312 3.34375 22.792969 L 10.140625 15.996094 L 16.421875 9.71875 Z M 9.625 2.921875 "/>
<path style=" stroke:none;fill-rule:nonzero;fill:rgb(22.352941%,22.745098%,23.921569%);fill-opacity:1;" d="M 10.144531 16 L 16.421875 9.71875 L 22.703125 16 L 16.421875 22.28125 Z M 10.144531 16 "/>
<use xlink:href="#surface5" mask="url(#mask0)"/>
<use xlink:href="#surface8" mask="url(#mask1)"/>
<use xlink:href="#surface11" mask="url(#mask2)"/>
<use xlink:href="#surface14" mask="url(#mask3)"/>
<path style=" stroke:none;fill-rule:nonzero;fill:white;fill-opacity:1;" d="M 16.421875 10.890625 L 21.53125 16 L 16.421875 21.105469 L 11.316406 16 Z M 16.421875 10.890625 "/>
<path style=" stroke:none;fill-rule:nonzero;fill:black;fill-opacity:1;" d="M 38.617188 21.632812 L 36.632812 21.632812 L 36.632812 12.171875 L 38.617188 12.171875 L 38.617188 16.722656 L 42.34375 12.171875 L 44.722656 12.171875 L 40.921875 16.800781 L 44.75 21.632812 L 42.210938 21.632812 L 38.617188 16.933594 Z M 38.617188 21.632812 "/>
<path style=" stroke:none;fill-rule:nonzero;fill:black;fill-opacity:1;" d="M 52.617188 12.171875 L 52.617188 13.816406 L 49.355469 13.816406 C 48.644531 13.816406 48.09375 14.003906 47.703125 14.375 C 47.3125 14.746094 47.117188 15.296875 47.117188 16.027344 L 52.617188 16.027344 L 52.617188 17.671875 L 47.117188 17.671875 C 47.117188 18.460938 47.261719 19.015625 47.550781 19.335938 C 47.84375 19.65625 48.113281 19.84375 48.363281 19.902344 C 48.6875 19.964844 49.023438 19.996094 49.355469 19.988281 L 52.617188 19.988281 L 52.617188 21.632812 L 49.277344 21.632812 C 48.644531 21.632812 48.109375 21.578125 47.664062 21.46875 C 47.222656 21.359375 46.777344 21.136719 46.328125 20.800781 C 45.808594 20.367188 45.414062 19.800781 45.191406 19.15625 C 44.960938 18.488281 44.847656 17.785156 44.855469 17.078125 L 44.882812 16.511719 C 44.882812 16.175781 44.917969 15.839844 44.988281 15.511719 C 45.054688 15.199219 45.140625 14.894531 45.25 14.59375 C 45.34375 14.324219 45.46875 14.070312 45.617188 13.828125 C 45.796875 13.5625 46.003906 13.316406 46.238281 13.09375 C 46.515625 12.816406 46.851562 12.613281 47.222656 12.492188 C 47.578125 12.375 47.941406 12.289062 48.308594 12.238281 C 48.648438 12.191406 48.988281 12.171875 49.328125 12.171875 Z M 48.582031 11.355469 L 47.6875 11.355469 L 48.761719 9.527344 L 50.300781 9.527344 L 51.425781 11.355469 L 50.53125 11.355469 L 49.539062 10.40625 Z M 48.582031 11.355469 "/>
<path style=" stroke:none;fill-rule:nonzero;fill:black;fill-opacity:1;" d="M 62.382812 21.632812 L 60.316406 21.632812 L 60.316406 13.84375 L 57.289062 13.84375 L 57.289062 12.199219 L 65.433594 12.199219 L 65.433594 13.84375 L 62.382812 13.84375 Z M 62.382812 21.632812 "/>
<path style=" stroke:none;fill-rule:nonzero;fill:black;fill-opacity:1;" d="M 66.078125 14.816406 C 66.28125 14.121094 66.550781 13.609375 66.894531 13.277344 C 67.238281 12.941406 67.550781 12.699219 67.839844 12.546875 C 68.132812 12.390625 68.4375 12.273438 68.757812 12.191406 C 69.039062 12.113281 69.328125 12.058594 69.617188 12.027344 C 69.910156 12 70.207031 11.984375 70.5 11.988281 C 71.132812 11.988281 71.628906 12.03125 71.992188 12.125 C 72.355469 12.21875 72.605469 12.285156 72.742188 12.328125 C 72.941406 12.402344 73.136719 12.492188 73.320312 12.597656 C 73.570312 12.734375 73.796875 12.910156 73.988281 13.117188 C 74.433594 13.546875 74.757812 14.109375 74.960938 14.796875 C 75.160156 15.480469 75.261719 16.191406 75.261719 16.90625 C 75.261719 17.625 75.160156 18.34375 74.960938 19.03125 C 74.757812 19.738281 74.425781 20.308594 73.964844 20.738281 C 73.511719 21.164062 72.949219 21.464844 72.339844 21.605469 C 71.746094 21.75 71.136719 21.824219 70.527344 21.828125 C 69.953125 21.832031 69.382812 21.765625 68.828125 21.632812 C 68.65625 21.601562 68.488281 21.554688 68.320312 21.492188 C 68.125 21.417969 67.933594 21.328125 67.75 21.222656 C 67.5 21.085938 67.265625 20.914062 67.058594 20.71875 C 66.824219 20.496094 66.621094 20.242188 66.464844 19.960938 C 66.304688 19.671875 66.152344 19.273438 66.007812 18.761719 C 65.863281 18.253906 65.789062 17.628906 65.789062 16.882812 C 65.785156 16.183594 65.882812 15.488281 66.078125 14.816406 Z M 68.105469 15.496094 C 67.996094 15.953125 67.941406 16.417969 67.945312 16.886719 C 67.945312 17.386719 68.03125 17.976562 68.203125 18.65625 C 68.375 19.332031 68.714844 19.761719 69.222656 19.941406 C 69.730469 20.121094 70.160156 20.210938 70.511719 20.210938 C 70.847656 20.210938 71.179688 20.164062 71.5 20.066406 C 72.253906 19.792969 72.722656 19.222656 72.90625 18.347656 C 73.03125 17.882812 73.09375 17.40625 73.089844 16.925781 C 73.089844 16.417969 73.050781 16.007812 72.964844 15.6875 C 72.882812 15.367188 72.828125 15.164062 72.796875 15.074219 C 72.742188 14.9375 72.675781 14.804688 72.597656 14.675781 C 72.484375 14.480469 72.339844 14.304688 72.171875 14.15625 C 72.003906 14 71.804688 13.882812 71.585938 13.808594 C 71.402344 13.75 71.214844 13.703125 71.027344 13.671875 C 70.53125 13.59375 70.027344 13.628906 69.550781 13.777344 C 68.867188 14.019531 68.386719 14.59375 68.105469 15.496094 Z M 68.105469 15.496094 "/>
<path style=" stroke:none;fill-rule:nonzero;fill:black;fill-opacity:1;" d="M 77.40625 21.632812 L 75.300781 21.632812 L 79.277344 12.171875 L 81.382812 12.171875 L 85.421875 21.632812 L 83.210938 21.632812 L 82.339844 19.367188 L 78.222656 19.367188 Z M 78.867188 17.699219 L 81.695312 17.699219 L 80.261719 14.078125 Z M 80.210938 11.300781 L 79.300781 11.300781 L 80.566406 9.472656 L 82.460938 9.472656 Z M 80.210938 11.300781 "/>
<path style=" stroke:none;fill-rule:nonzero;fill:black;fill-opacity:1;" d="M 88.132812 21.632812 L 86.089844 21.632812 L 86.089844 12.171875 L 88.617188 12.171875 L 92.472656 18.988281 L 92.394531 12.171875 L 94.394531 12.171875 L 94.394531 21.632812 L 92.105469 21.632812 L 88.050781 14.488281 Z M 88.132812 21.632812 "/>
<path style=" stroke:none;fill-rule:nonzero;fill:black;fill-opacity:1;" d="M 52.164062 10.105469 L 51.253906 10.105469 L 52.515625 8.277344 L 54.414062 8.277344 Z M 52.164062 10.105469 "/>
</g>
</svg>
